<svg width="24" height="24" viewBox="0 0 24 24" fill="none" xmlns="http://www.w3.org/2000/svg">
  <path d="M3.75 9C3.75 7.61929 4.86929 6.5 6.25 6.5H7.35C7.86 6.5 8.34 6.257 8.64 5.845L9.11 5.205C9.41 4.793 9.89 4.55 10.4 4.55H13.6C14.11 4.55 14.59 4.793 14.89 5.205L15.36 5.845 " stroke="#2D2D3A" stroke-width="1" stroke-linecap="round" stroke-linejoin="round"/>
  <path d="M20.25 10.25V16C20.25 17.2426 19.2426 18.25 18 18.25H6C4.75736 18.25 3.75 17.2426 3.75 16V9.75" stroke="#2D2D3A" stroke-width="1" stroke-linecap="round" stroke-linejoin="round"/>
  <path d="M12 9.5C10.6193 9.5 9.5 10.6193 9.5 12C9.5 13.3807 10.6193 14.5 12 14.5C13.3807 14.5 14.5 13.3807 14.5 12C14.5 10.6193 13.3807 9.5 12 9.5Z" stroke="#2D2D3A" stroke-width="1" stroke-linecap="round" stroke-linejoin="round"/>
  <path d="M19.625 3.75V7.25" stroke="#2D2D3A" stroke-width="1" stroke-linecap="round"/>
  <path d="M17.875 5.5H21.375" stroke="#2D2D3A" stroke-width="1" stroke-linecap="round"/>
</svg>