<svg width="24" height="24" viewBox="0 0 24 24" fill="none" xmlns="http://www.w3.org/2000/svg">
  <path d="M10.2 6.3 L10.2 3.7 L13.8 3.7 L13.9 6.3 A6 6 0 0 1 16 7.5 L18.3 6.3 L20.1 9.4 L17.9 10.8 A6 6 0 0 1 17.9 13.3 L20.1 14.6 L18.3 17.7 L16 16.5 A6 6 0 0 1 13.9 17.7 L13.8 20.3 L10.2 20.3 L10.2 17.7 A6 6 0 0 1 8 16.5 L5.7 17.7 L3.9 14.6 L6.1 13.3 A6 6 0 0 1 6.1 10.8 L3.9 9.4 L5.7 6.3 L8 7.5 A6 6 0 0 1 10.2 6.3Z" stroke="#2D2D3A" stroke-width="1" stroke-linejoin="round"/>
  <circle cx="12" cy="12" r="3" stroke="#2D2D3A" stroke-width="1"/>
</svg>
