<svg width="24" height="24" viewBox="0 0 24 24" fill="none" xmlns="http://www.w3.org/2000/svg">
  <path d="M12 4.5C12.7 7.4 14.6 9.3 17.5 10C14.6 10.7 12.7 12.6 12 15.5C11.3 12.6 9.4 10.7 6.5 10C9.4 9.3 11.3 7.4 12 4.5Z" stroke="#2D2D3A" stroke-width="1" stroke-linecap="round" stroke-linejoin="round"/>
  <path d="M6.5 15.5C6.85 16.95 7.8 17.9 9.25 18.25C7.8 18.6 6.85 19.55 6.5 21C6.15 19.55 5.2 18.6 3.75 18.25C5.2 17.9 6.15 16.95 6.5 15.5Z" stroke="#2D2D3A" stroke-width="1" stroke-linecap="round" stroke-linejoin="round"/>
  <path d="M18 3.75C18.28 4.91 19.09 5.72 20.25 6C19.09 6.28 18.28 7.09 18 8.25C17.72 7.09 16.91 6.28 15.75 6C16.91 5.72 17.72 4.91 18 3.75Z" stroke="#2D2D3A" stroke-width="1" stroke-linecap="round" stroke-linejoin="round"/>
</svg>
